# xmcd CD database file
#
# Track frame offsets:
#	187
#	26265
#	60137
#	101345
#	119870
#	140700
#	160480
#	184357
#	203255
#	215555
#	239287
#	249577
#
# Disc length: 3544 seconds
#
# Revision: 0
# Processed by: cddbd v1.5.2PL0 Copyright (c) Steve Scherf et al.
# Submitted via: CDex 1.70beta2
#
DISCID=a70dd60c
DTITLE=Dizzy Gillespie - Compact Jazz
DYEAR=1989
DGENRE=Jazz
TTITLE0=The Legend Of Atlantis
TTITLE1=The Empire
TTITLE2=The Chains
TTITLE3=The Swords
TTITLE4=The Day After
TTITLE5=November Afternoon
TTITLE6=Theme From The Cool World
TTITLE7=Enter Priest
TTITLE8=Duke's Awakening
TTITLE9=Duke On The Run
TTITLE10=Duke's Fantasy
TTITLE11=Coolie
EXTD=YEAR: 1989
EXTT0=
EXTT1=
EXTT2=
EXTT3=
EXTT4=
EXTT5=
EXTT6=
EXTT7=
EXTT8=
EXTT9=
EXTT10=
EXTT11=
PLAYORDER=
